<svg width="33" height="33" viewBox="0 0 33 33" fill="none" xmlns="http://www.w3.org/2000/svg">
<path d="M16.5 1C25.0887 1 31.9997 7.74939 32 16.0127C32 24.2762 25.0889 31.0264 16.5 31.0264C7.91114 31.0264 1 24.2762 1 16.0127C1.00026 7.74939 7.9113 1 16.5 1Z" stroke="#7D5BA6" stroke-width="2"/>
<path d="M21.5694 11.9616C21.6078 11.5386 21.3133 11.1661 20.9115 11.1296L14.3641 10.5352C13.9623 10.4988 13.6055 10.8121 13.5671 11.2351C13.5287 11.658 13.8233 12.0305 14.2251 12.067L20.0449 12.5954L19.4887 18.7224C19.4503 19.1454 19.7449 19.5178 20.1466 19.5543C20.5484 19.5908 20.9052 19.2775 20.9436 18.8545L21.5694 11.9616ZM10.4209 21.0459L10.8861 21.6342L21.3072 12.4838L20.842 11.8955L20.3767 11.3073L9.95566 20.4576L10.4209 21.0459Z" fill="#7D5BA6"/>
</svg>
